<svg xmlns="http://www.w3.org/2000/svg" xmlns:xlink="http://www.w3.org/1999/xlink" width="" zoomAndPan="magnify" viewBox="0 0 375 374.999991" height="95" preserveAspectRatio="xMidYMid meet" version="1.0"><defs><g/><clipPath id="84cce712b8"><path d="M 63.976562 206.894531 L 305.714844 206.894531 L 305.714844 234.582031 L 63.976562 234.582031 Z M 63.976562 206.894531 " clip-rule="nonzero"/></clipPath><clipPath id="1ef7682590"><path d="M 77.824219 206.894531 L 291.792969 206.894531 C 295.464844 206.894531 298.984375 208.351562 301.582031 210.949219 C 304.179688 213.546875 305.636719 217.066406 305.636719 220.738281 C 305.636719 224.410156 304.179688 227.929688 301.582031 230.527344 C 298.984375 233.125 295.464844 234.582031 291.792969 234.582031 L 77.824219 234.582031 C 74.152344 234.582031 70.628906 233.125 68.03125 230.527344 C 65.4375 227.929688 63.976562 224.410156 63.976562 220.738281 C 63.976562 217.066406 65.4375 213.546875 68.03125 210.949219 C 70.628906 208.351562 74.152344 206.894531 77.824219 206.894531 Z M 77.824219 206.894531 " clip-rule="nonzero"/></clipPath></defs><rect x="-37.5" width="450" fill="#ffffff" y="-37.499999" height="449.999989" fill-opacity="1"/><rect x="-37.5" width="450" fill="#161513" y="-37.499999" height="449.999989" fill-opacity="1"/><path stroke-linecap="butt" transform="matrix(0.796661, 0, 0, 0.796661, 63.978024, -0.962274)" fill="none" stroke-linejoin="miter" d="M 159.766616 169.331523 C 158.972285 176.81883 156.971747 183.384321 153.779712 189.023092 C 150.582774 194.661863 146.743507 199.628885 142.2472 203.924158 C 137.755796 208.214527 132.940776 211.833147 127.802139 214.780018 C 122.658599 217.721986 117.794546 220.242271 113.200173 222.340875 C 121.98685 231.823817 129.895839 240.257457 136.932045 247.646699 C 143.973154 255.031038 150.234641 261.572012 155.726314 267.259816 C 161.217987 272.952523 165.983974 277.865609 170.024277 282.00888 C 174.069482 286.152151 177.5361 289.61877 180.433938 292.418542 C 187.220077 299.106615 191.961548 303.548986 194.658352 305.740752 C 197.453221 307.937421 200.498157 309.462341 203.793161 310.310608 C 207.083261 311.158875 210.280199 311.580557 213.374168 311.580557 C 215.968003 311.580557 218.463772 311.33049 220.861476 310.835259 C 223.259179 310.335124 225.151845 309.785957 226.54928 309.187757 C 221.758776 312.379792 217.541956 315.27763 213.898819 317.871465 C 210.255683 320.465299 206.911646 322.686485 203.86671 324.535021 C 200.821774 326.383557 197.928839 327.805508 195.183002 328.800874 C 192.437166 329.801143 189.61778 330.301278 186.719942 330.301278 C 184.724308 330.301278 182.753189 330.002177 180.806588 329.399074 C 178.859986 328.800874 176.815318 327.854541 174.667682 326.555172 C 172.520046 325.260706 170.225311 323.613205 167.778575 321.612667 C 165.331838 319.617032 162.664454 317.224232 159.766616 314.429363 C 157.873951 312.531793 155.025145 309.462341 151.23491 305.221004 C 147.439772 300.974764 143.198436 296.233293 138.505997 290.991688 C 133.813559 285.754985 128.92499 280.287829 123.830483 274.595122 C 118.740879 268.907318 113.950375 263.641196 109.458971 258.801659 C 104.967567 253.95722 100.995911 249.789432 97.553809 246.298297 C 94.111707 242.802259 91.73852 240.659526 90.439151 239.860292 C 88.943651 238.958088 87.345182 238.163757 85.648647 237.462588 C 84.251213 236.864388 82.628227 236.339737 80.784594 235.888635 C 78.936058 235.442437 77.165974 235.314952 75.469439 235.515986 L 97.18116 220.541371 C 102.167795 220.541371 106.938686 219.394004 111.479122 217.099269 C 116.019559 214.804535 119.961795 211.435982 123.305832 206.993611 C 126.649868 202.55124 129.273123 197.133116 131.170692 190.744143 C 133.063358 184.35517 133.813559 177.11793 133.416394 169.032423 C 133.215359 164.241919 132.141541 159.873097 130.194939 155.930861 C 128.248337 151.988624 125.752568 148.46807 122.707632 145.3741 C 119.662695 142.280131 116.196077 139.583328 112.302873 137.288593 C 108.409669 134.993858 104.4184 133.071773 100.324162 131.522337 C 96.229924 129.977804 92.165105 128.830436 88.1199 128.080234 C 84.074694 127.330033 80.358009 126.957384 76.96494 126.957384 C 74.670205 126.957384 72.174436 127.006416 69.477632 127.109385 C 66.780829 127.207451 64.088928 127.256484 61.392125 127.256484 C 61.093025 145.923268 60.769408 162.594417 60.416372 177.269932 C 60.068239 191.945447 59.744623 204.968556 59.445523 216.349068 C 59.146423 227.729579 58.871839 237.536137 58.621772 245.773646 C 58.371705 254.011156 58.097121 261.022845 57.798021 266.813618 C 57.199821 280.385895 56.650654 289.569737 56.150519 294.365144 C 55.851419 296.360779 55.351285 298.405446 54.655019 300.504049 C 54.056819 302.29865 53.233068 304.245252 52.183766 306.343855 C 51.134464 308.437555 49.810579 310.482223 48.217013 312.482761 C 52.507383 312.977992 56.37607 313.252576 59.818172 313.306512 C 63.265177 313.355544 66.432696 313.380061 69.32563 313.380061 C 76.214738 313.380061 81.279825 313.179026 84.525796 312.781861 C 87.771767 312.379792 89.639916 312.080692 90.140051 311.879657 C 84.952381 314.478395 80.058909 316.871196 75.469439 319.067865 C 70.875067 321.264534 66.481729 323.211136 62.289425 324.90767 C 58.097121 326.604205 54.081335 327.92809 50.237164 328.879327 C 46.392993 329.825659 42.627275 330.301278 38.930202 330.301278 L 12.87908 330.301278 L 26.054191 321.465568 C 26.750457 318.871734 27.427109 315.772861 28.074342 312.183661 C 28.726478 308.589557 29.300162 304.72087 29.795393 300.577599 C 30.295528 296.434328 30.722113 292.143958 31.070246 287.701587 C 31.418379 283.259216 31.741995 278.890395 32.045998 274.595122 C 32.644198 264.715014 33.090397 254.231803 33.389497 243.155295 C 33.590531 227.88158 33.791566 213.108 33.987697 198.829651 C 34.090666 192.739778 34.188731 186.47829 34.2917 180.040285 C 34.389766 173.602279 34.463315 167.311372 34.512348 161.172466 C 34.566284 155.033561 34.639833 149.193755 34.737899 143.653049 C 34.840867 138.112344 34.8899 133.194355 34.8899 128.903985 L 7.936574 131.002589 L 37.135602 113.483172 C 38.832137 113.782272 40.705189 113.953887 42.749857 114.00292 C 44.794524 114.056856 46.917644 114.081372 49.114313 114.081372 C 53.404683 114.081372 57.650923 113.904854 61.843226 113.556721 C 66.03553 113.208588 70.203317 112.80652 74.341685 112.360321 C 78.484956 111.909219 82.554678 111.482634 86.545947 111.085469 C 90.54212 110.688303 94.582422 110.487268 98.67666 110.487268 C 106.664102 110.487268 114.499542 111.83567 122.182981 114.527571 C 129.871323 117.224374 136.632945 121.117578 142.47275 126.207182 C 148.312556 131.301689 152.882412 137.489627 156.177416 144.7759 C 159.467516 152.062173 160.66882 160.25065 159.766616 169.331523 Z M 227.000381 308.888657 C 226.799347 308.986723 226.701281 309.035755 226.701281 309.035755 L 226.54928 309.035755 L 226.54928 309.187757 L 226.54928 309.035755 L 226.701281 309.035755 C 226.799347 308.93769 226.902316 308.888657 227.000381 308.888657 Z M 227.000381 308.888657 " stroke="#ffffff" stroke-width="23.000025" stroke-opacity="1" stroke-miterlimit="4"/><g fill="#ffffff" fill-opacity="1"><g transform="translate(63.978024, 261.935765)"><g><path d="M 127.28125 -128 C 126.644531 -122.03125 125.050781 -116.796875 122.5 -112.296875 C 119.957031 -107.804688 116.894531 -103.851562 113.3125 -100.4375 C 109.738281 -97.019531 105.90625 -94.132812 101.8125 -91.78125 C 97.71875 -89.4375 93.84375 -87.429688 90.1875 -85.765625 C 97.175781 -78.210938 103.472656 -71.492188 109.078125 -65.609375 C 114.691406 -59.722656 119.6875 -54.515625 124.0625 -49.984375 C 128.4375 -45.453125 132.234375 -41.535156 135.453125 -38.234375 C 138.671875 -34.929688 141.429688 -32.164062 143.734375 -29.9375 C 149.140625 -24.613281 152.921875 -21.078125 155.078125 -19.328125 C 157.296875 -17.578125 159.71875 -16.363281 162.34375 -15.6875 C 164.96875 -15.007812 167.515625 -14.671875 169.984375 -14.671875 C 172.046875 -14.671875 174.03125 -14.867188 175.9375 -15.265625 C 177.851562 -15.660156 179.367188 -16.097656 180.484375 -16.578125 C 176.660156 -14.035156 173.296875 -11.726562 170.390625 -9.65625 C 167.492188 -7.59375 164.832031 -5.820312 162.40625 -4.34375 C 159.976562 -2.875 157.671875 -1.742188 155.484375 -0.953125 C 153.296875 -0.160156 151.050781 0.234375 148.75 0.234375 C 147.15625 0.234375 145.582031 0 144.03125 -0.46875 C 142.488281 -0.945312 140.859375 -1.703125 139.140625 -2.734375 C 137.429688 -3.773438 135.601562 -5.085938 133.65625 -6.671875 C 131.707031 -8.265625 129.582031 -10.175781 127.28125 -12.40625 C 125.769531 -13.914062 123.503906 -16.359375 120.484375 -19.734375 C 117.460938 -23.117188 114.082031 -26.898438 110.34375 -31.078125 C 106.601562 -35.253906 102.703125 -39.609375 98.640625 -44.140625 C 94.585938 -48.671875 90.769531 -52.863281 87.1875 -56.71875 C 83.613281 -60.570312 80.453125 -63.890625 77.703125 -66.671875 C 74.960938 -69.460938 73.078125 -71.175781 72.046875 -71.8125 C 70.859375 -72.53125 69.585938 -73.164062 68.234375 -73.71875 C 67.117188 -74.195312 65.820312 -74.613281 64.34375 -74.96875 C 62.875 -75.320312 61.46875 -75.421875 60.125 -75.265625 L 77.421875 -87.203125 C 81.390625 -87.203125 85.179688 -88.113281 88.796875 -89.9375 C 92.421875 -91.769531 95.566406 -94.453125 98.234375 -97.984375 C 100.898438 -101.523438 102.988281 -105.835938 104.5 -110.921875 C 106.007812 -116.015625 106.601562 -121.785156 106.28125 -128.234375 C 106.125 -132.046875 105.269531 -135.519531 103.71875 -138.65625 C 102.164062 -141.800781 100.175781 -144.609375 97.75 -147.078125 C 95.320312 -149.546875 92.554688 -151.691406 89.453125 -153.515625 C 86.359375 -155.347656 83.179688 -156.878906 79.921875 -158.109375 C 76.660156 -159.347656 73.421875 -160.265625 70.203125 -160.859375 C 66.984375 -161.453125 64.019531 -161.75 61.3125 -161.75 C 59.476562 -161.75 57.488281 -161.707031 55.34375 -161.625 C 53.195312 -161.550781 51.050781 -161.515625 48.90625 -161.515625 C 48.664062 -146.640625 48.40625 -133.359375 48.125 -121.671875 C 47.851562 -109.984375 47.597656 -99.601562 47.359375 -90.53125 C 47.117188 -81.46875 46.898438 -73.65625 46.703125 -67.09375 C 46.503906 -60.53125 46.285156 -54.945312 46.046875 -50.34375 C 45.566406 -39.519531 45.128906 -32.203125 44.734375 -28.390625 C 44.492188 -26.796875 44.097656 -25.164062 43.546875 -23.5 C 43.066406 -22.070312 42.40625 -20.519531 41.5625 -18.84375 C 40.726562 -17.175781 39.675781 -15.546875 38.40625 -13.953125 C 41.832031 -13.554688 44.914062 -13.335938 47.65625 -13.296875 C 50.394531 -13.253906 52.921875 -13.234375 55.234375 -13.234375 C 60.710938 -13.234375 64.742188 -13.390625 67.328125 -13.703125 C 69.921875 -14.023438 71.414062 -14.269531 71.8125 -14.4375 C 67.675781 -12.363281 63.773438 -10.453125 60.109375 -8.703125 C 56.453125 -6.953125 52.953125 -5.398438 49.609375 -4.046875 C 46.273438 -2.703125 43.078125 -1.648438 40.015625 -0.890625 C 36.953125 -0.140625 33.953125 0.234375 31.015625 0.234375 L 10.265625 0.234375 L 20.75 -6.796875 C 21.3125 -8.867188 21.847656 -11.332031 22.359375 -14.1875 C 22.878906 -17.050781 23.335938 -20.132812 23.734375 -23.4375 C 24.128906 -26.738281 24.46875 -30.15625 24.75 -33.6875 C 25.03125 -37.226562 25.289062 -40.710938 25.53125 -44.140625 C 26.007812 -52.003906 26.363281 -60.351562 26.59375 -69.1875 C 26.757812 -81.351562 26.921875 -93.125 27.078125 -104.5 C 27.160156 -109.34375 27.238281 -114.328125 27.3125 -119.453125 C 27.394531 -124.585938 27.457031 -129.597656 27.5 -134.484375 C 27.539062 -139.378906 27.597656 -144.035156 27.671875 -148.453125 C 27.753906 -152.867188 27.796875 -156.785156 27.796875 -160.203125 L 6.328125 -158.53125 L 29.578125 -172.484375 C 30.929688 -172.242188 32.421875 -172.101562 34.046875 -172.0625 C 35.679688 -172.03125 37.375 -172.015625 39.125 -172.015625 C 42.539062 -172.015625 45.921875 -172.148438 49.265625 -172.421875 C 52.609375 -172.703125 55.925781 -173.019531 59.21875 -173.375 C 62.519531 -173.738281 65.757812 -174.078125 68.9375 -174.390625 C 72.125 -174.710938 75.347656 -174.875 78.609375 -174.875 C 84.972656 -174.875 91.210938 -173.800781 97.328125 -171.65625 C 103.453125 -169.507812 108.84375 -166.40625 113.5 -162.34375 C 118.15625 -158.289062 121.789062 -153.359375 124.40625 -147.546875 C 127.03125 -141.742188 127.988281 -135.226562 127.28125 -128 Z M 180.84375 -16.8125 C 180.675781 -16.738281 180.59375 -16.703125 180.59375 -16.703125 L 180.484375 -16.703125 L 180.484375 -16.578125 L 180.484375 -16.703125 L 180.59375 -16.703125 C 180.675781 -16.773438 180.757812 -16.8125 180.84375 -16.8125 Z M 180.84375 -16.8125 "/></g></g></g><path stroke-linecap="butt" transform="matrix(0.638842, 0, 0, 0.638842, 202.953843, 17.908807)" fill="none" stroke-linejoin="miter" d="M 197.499638 124.262499 C 195.708068 126.555465 193.506821 128.805628 190.914241 131.000761 C 188.719109 132.896279 185.998123 134.895745 182.751284 136.986929 C 179.51056 139.084228 175.737867 140.985861 171.445436 142.679598 C 172.845673 140.881913 172.967965 138.961937 171.824539 136.913554 C 170.674999 134.871286 168.155794 132.994112 164.26081 131.300375 C 160.365826 129.600523 155.101177 128.2064 148.460749 127.105777 C 141.826436 126.011268 133.712395 125.460956 124.130857 125.460956 C 118.542135 125.460956 112.525394 126.035726 106.086747 127.179151 C 99.6481 128.328691 93.282827 130.303699 86.997045 133.09806 C 80.705147 135.89242 74.645604 139.610082 68.806185 144.251044 C 62.966766 148.892006 57.79995 154.682508 53.305738 161.622551 C 48.811526 168.556478 45.246729 176.792811 42.599118 186.325432 C 39.957621 195.864169 38.630759 206.864289 38.630759 219.344136 C 38.630759 231.823983 40.153288 242.805759 43.198346 252.289464 C 46.243404 261.77317 50.285138 269.930012 55.329662 276.766107 C 60.368072 283.608316 66.134116 289.29487 72.621679 293.837999 C 79.109243 298.381128 85.749671 302.025415 92.536849 304.770859 C 99.324027 307.516303 105.988914 309.436279 112.525394 310.536903 C 119.067989 311.631412 124.980783 312.181723 130.26989 312.181723 C 136.360006 312.08389 142.70082 311.631412 149.286217 310.836517 C 154.978886 310.133341 161.24021 309.112207 168.076305 307.767 C 174.918514 306.415679 181.632317 304.446786 188.217714 301.848092 C 178.538342 309.63806 169.549917 315.575312 161.264669 319.665963 C 152.97942 323.762728 145.690847 326.807786 139.405064 328.801137 C 132.116491 331.100217 125.427146 332.396507 119.33703 332.696121 C 104.564218 332.696121 90.641331 330.525447 77.562256 326.184099 C 64.489295 321.836637 53.030582 315.550854 43.198346 307.314522 C 33.36611 299.07819 25.606715 288.970798 19.914046 276.992346 C 14.227491 265.013894 11.378099 251.390622 11.378099 236.116414 C 11.378099 226.632709 12.276942 217.821607 14.074627 209.689222 C 15.872312 201.550723 18.244767 194.090942 21.185877 187.303764 C 24.133102 180.510472 27.453316 174.402012 31.146519 168.96004 C 34.839722 163.518069 38.6063 158.724242 42.452368 154.584675 C 46.292321 150.438994 50.034441 146.97203 53.678727 144.177669 C 57.323014 141.383308 60.496478 139.237093 63.186891 137.739022 C 65.785585 136.240951 69.105799 134.547214 73.147533 132.645581 C 77.189267 130.750063 81.628448 128.830087 86.471191 126.885652 C 91.313934 124.935103 96.431833 123.015126 101.818774 121.119608 C 107.211828 119.22409 112.702717 117.524238 118.291438 116.026167 C 123.880159 114.528096 129.346589 113.32964 134.690727 112.430797 C 140.028751 111.531955 145.091619 111.085591 149.885445 111.085591 C 160.567607 111.085591 169.201387 111.586986 175.792898 112.583662 C 182.378295 113.580337 187.392246 114.803252 190.840867 116.252406 C 194.283372 117.701561 196.429588 119.169059 197.279514 120.667129 C 198.123325 122.1652 198.202814 123.363657 197.499638 124.262499 Z M 197.499638 124.262499 " stroke="#ffffff" stroke-width="23.000025" stroke-opacity="1" stroke-miterlimit="4"/><g fill="#ffffff" fill-opacity="1"><g transform="translate(202.953843, 228.726822)"><g><path d="M 126.171875 -131.4375 C 125.023438 -129.96875 123.625 -128.53125 121.96875 -127.125 C 120.5625 -125.914062 118.820312 -124.640625 116.75 -123.296875 C 114.675781 -121.960938 112.269531 -120.753906 109.53125 -119.671875 C 110.414062 -120.816406 110.492188 -122.039062 109.765625 -123.34375 C 109.035156 -124.65625 107.425781 -125.851562 104.9375 -126.9375 C 102.445312 -128.019531 99.082031 -128.910156 94.84375 -129.609375 C 90.601562 -130.316406 85.421875 -130.671875 79.296875 -130.671875 C 75.722656 -130.671875 71.878906 -130.300781 67.765625 -129.5625 C 63.660156 -128.832031 59.597656 -127.570312 55.578125 -125.78125 C 51.554688 -124 47.679688 -121.625 43.953125 -118.65625 C 40.222656 -115.695312 36.921875 -112 34.046875 -107.5625 C 31.179688 -103.132812 28.898438 -97.875 27.203125 -91.78125 C 25.515625 -85.6875 24.671875 -78.65625 24.671875 -70.6875 C 24.671875 -62.71875 25.644531 -55.703125 27.59375 -49.640625 C 29.539062 -43.585938 32.125 -38.375 35.34375 -34 C 38.5625 -29.632812 42.242188 -26 46.390625 -23.09375 C 50.535156 -20.195312 54.773438 -17.867188 59.109375 -16.109375 C 63.453125 -14.359375 67.710938 -13.132812 71.890625 -12.4375 C 76.066406 -11.738281 79.84375 -11.390625 83.21875 -11.390625 C 87.113281 -11.453125 91.164062 -11.738281 95.375 -12.25 C 99.007812 -12.6875 103.007812 -13.335938 107.375 -14.203125 C 111.738281 -15.066406 116.023438 -16.328125 120.234375 -17.984375 C 114.054688 -13.003906 108.316406 -9.207031 103.015625 -6.59375 C 97.722656 -3.976562 93.070312 -2.035156 89.0625 -0.765625 C 84.40625 0.703125 80.128906 1.53125 76.234375 1.71875 C 66.796875 1.71875 57.898438 0.332031 49.546875 -2.4375 C 41.191406 -5.207031 33.875 -9.222656 27.59375 -14.484375 C 21.3125 -19.753906 16.351562 -26.210938 12.71875 -33.859375 C 9.082031 -41.515625 7.265625 -50.222656 7.265625 -59.984375 C 7.265625 -66.035156 7.835938 -71.660156 8.984375 -76.859375 C 10.140625 -82.054688 11.65625 -86.820312 13.53125 -91.15625 C 15.414062 -95.5 17.535156 -99.40625 19.890625 -102.875 C 22.253906 -106.351562 24.660156 -109.414062 27.109375 -112.0625 C 29.566406 -114.707031 31.957031 -116.921875 34.28125 -118.703125 C 36.613281 -120.492188 38.644531 -121.867188 40.375 -122.828125 C 42.03125 -123.785156 44.148438 -124.867188 46.734375 -126.078125 C 49.316406 -127.285156 52.148438 -128.507812 55.234375 -129.75 C 58.328125 -131 61.597656 -132.226562 65.046875 -133.4375 C 68.492188 -134.65625 72 -135.738281 75.5625 -136.6875 C 79.132812 -137.644531 82.625 -138.410156 86.03125 -138.984375 C 89.445312 -139.554688 92.6875 -139.84375 95.75 -139.84375 C 102.570312 -139.84375 108.085938 -139.523438 112.296875 -138.890625 C 116.503906 -138.253906 119.707031 -137.472656 121.90625 -136.546875 C 124.113281 -135.617188 125.488281 -134.675781 126.03125 -133.71875 C 126.570312 -132.769531 126.617188 -132.007812 126.171875 -131.4375 Z M 126.171875 -131.4375 "/></g></g></g><g clip-path="url(#84cce712b8)"><g clip-path="url(#1ef7682590)"><path fill="#161513" d="M 63.976562 206.894531 L 305.605469 206.894531 L 305.605469 234.582031 L 63.976562 234.582031 Z M 63.976562 206.894531 " fill-opacity="1" fill-rule="nonzero"/></g></g><g fill="#ffffff" fill-opacity="1"><g transform="translate(98.039688, 228.568294)"><g><path d="M 11.390625 -11.453125 C 11.328125 -10.921875 11.179688 -10.453125 10.953125 -10.046875 C 10.734375 -9.648438 10.460938 -9.296875 10.140625 -8.984375 C 9.816406 -8.679688 9.472656 -8.421875 9.109375 -8.203125 C 8.742188 -7.992188 8.394531 -7.816406 8.0625 -7.671875 C 8.695312 -6.992188 9.265625 -6.390625 9.765625 -5.859375 C 10.265625 -5.335938 10.707031 -4.875 11.09375 -4.46875 C 11.488281 -4.0625 11.828125 -3.710938 12.109375 -3.421875 C 12.398438 -3.128906 12.648438 -2.878906 12.859375 -2.671875 C 13.347656 -2.203125 13.6875 -1.890625 13.875 -1.734375 C 14.070312 -1.578125 14.285156 -1.46875 14.515625 -1.40625 C 14.753906 -1.34375 14.984375 -1.3125 15.203125 -1.3125 C 15.390625 -1.3125 15.566406 -1.328125 15.734375 -1.359375 C 15.910156 -1.398438 16.050781 -1.441406 16.15625 -1.484375 C 15.8125 -1.253906 15.507812 -1.046875 15.25 -0.859375 C 14.988281 -0.679688 14.75 -0.523438 14.53125 -0.390625 C 14.3125 -0.253906 14.101562 -0.148438 13.90625 -0.078125 C 13.71875 -0.015625 13.519531 0.015625 13.3125 0.015625 C 13.164062 0.015625 13.023438 -0.00390625 12.890625 -0.046875 C 12.753906 -0.0859375 12.609375 -0.15625 12.453125 -0.25 C 12.296875 -0.34375 12.128906 -0.457031 11.953125 -0.59375 C 11.785156 -0.738281 11.597656 -0.910156 11.390625 -1.109375 C 11.253906 -1.242188 11.050781 -1.460938 10.78125 -1.765625 C 10.507812 -2.066406 10.207031 -2.40625 9.875 -2.78125 C 9.539062 -3.15625 9.191406 -3.546875 8.828125 -3.953125 C 8.460938 -4.359375 8.117188 -4.734375 7.796875 -5.078125 C 7.484375 -5.421875 7.203125 -5.71875 6.953125 -5.96875 C 6.703125 -6.21875 6.535156 -6.367188 6.453125 -6.421875 C 6.335938 -6.484375 6.222656 -6.539062 6.109375 -6.59375 C 6.003906 -6.632812 5.882812 -6.671875 5.75 -6.703125 C 5.625 -6.734375 5.5 -6.742188 5.375 -6.734375 L 6.921875 -7.796875 C 7.273438 -7.796875 7.613281 -7.878906 7.9375 -8.046875 C 8.269531 -8.210938 8.550781 -8.453125 8.78125 -8.765625 C 9.019531 -9.085938 9.207031 -9.472656 9.34375 -9.921875 C 9.476562 -10.378906 9.535156 -10.894531 9.515625 -11.46875 C 9.492188 -11.8125 9.414062 -12.125 9.28125 -12.40625 C 9.144531 -12.6875 8.96875 -12.9375 8.75 -13.15625 C 8.53125 -13.375 8.28125 -13.566406 8 -13.734375 C 7.726562 -13.898438 7.445312 -14.035156 7.15625 -14.140625 C 6.863281 -14.253906 6.570312 -14.335938 6.28125 -14.390625 C 5.988281 -14.441406 5.722656 -14.46875 5.484375 -14.46875 C 5.316406 -14.46875 5.140625 -14.460938 4.953125 -14.453125 C 4.765625 -14.453125 4.570312 -14.453125 4.375 -14.453125 C 4.351562 -13.117188 4.328125 -11.925781 4.296875 -10.875 C 4.273438 -9.832031 4.253906 -8.90625 4.234375 -8.09375 C 4.210938 -7.289062 4.191406 -6.59375 4.171875 -6 C 4.160156 -5.414062 4.144531 -4.914062 4.125 -4.5 C 4.082031 -3.53125 4.039062 -2.878906 4 -2.546875 C 3.976562 -2.398438 3.941406 -2.253906 3.890625 -2.109375 C 3.847656 -1.972656 3.789062 -1.832031 3.71875 -1.6875 C 3.644531 -1.539062 3.550781 -1.394531 3.4375 -1.25 C 3.738281 -1.21875 4.007812 -1.195312 4.25 -1.1875 C 4.5 -1.1875 4.726562 -1.1875 4.9375 -1.1875 C 5.425781 -1.1875 5.785156 -1.195312 6.015625 -1.21875 C 6.253906 -1.25 6.390625 -1.273438 6.421875 -1.296875 C 6.054688 -1.109375 5.707031 -0.9375 5.375 -0.78125 C 5.050781 -0.625 4.738281 -0.484375 4.4375 -0.359375 C 4.132812 -0.242188 3.847656 -0.148438 3.578125 -0.078125 C 3.304688 -0.015625 3.039062 0.015625 2.78125 0.015625 L 0.921875 0.015625 L 1.859375 -0.609375 C 1.910156 -0.796875 1.957031 -1.015625 2 -1.265625 C 2.050781 -1.523438 2.09375 -1.800781 2.125 -2.09375 C 2.15625 -2.394531 2.179688 -2.703125 2.203125 -3.015625 C 2.234375 -3.328125 2.257812 -3.640625 2.28125 -3.953125 C 2.320312 -4.648438 2.351562 -5.394531 2.375 -6.1875 C 2.394531 -7.28125 2.410156 -8.332031 2.421875 -9.34375 C 2.429688 -9.78125 2.4375 -10.226562 2.4375 -10.6875 C 2.445312 -11.144531 2.453125 -11.59375 2.453125 -12.03125 C 2.460938 -12.46875 2.46875 -12.882812 2.46875 -13.28125 C 2.476562 -13.675781 2.484375 -14.023438 2.484375 -14.328125 L 0.5625 -14.1875 L 2.640625 -15.4375 C 2.765625 -15.414062 2.898438 -15.398438 3.046875 -15.390625 C 3.191406 -15.390625 3.34375 -15.390625 3.5 -15.390625 C 3.800781 -15.390625 4.101562 -15.398438 4.40625 -15.421875 C 4.707031 -15.453125 5.003906 -15.484375 5.296875 -15.515625 C 5.597656 -15.546875 5.890625 -15.570312 6.171875 -15.59375 C 6.453125 -15.625 6.738281 -15.640625 7.03125 -15.640625 C 7.601562 -15.640625 8.160156 -15.546875 8.703125 -15.359375 C 9.253906 -15.171875 9.738281 -14.894531 10.15625 -14.53125 C 10.570312 -14.164062 10.894531 -13.722656 11.125 -13.203125 C 11.363281 -12.679688 11.453125 -12.097656 11.390625 -11.453125 Z M 16.1875 -1.5 C 16.164062 -1.5 16.15625 -1.5 16.15625 -1.5 L 16.15625 -1.484375 L 16.15625 -1.5 C 16.164062 -1.5 16.175781 -1.5 16.1875 -1.5 Z M 16.1875 -1.5 "/></g></g></g><g fill="#ffffff" fill-opacity="1"><g transform="translate(114.410913, 228.568294)"><g><path d="M 4.265625 -1.109375 C 3.878906 -0.898438 3.515625 -0.722656 3.171875 -0.578125 C 2.828125 -0.429688 2.503906 -0.316406 2.203125 -0.234375 C 1.910156 -0.148438 1.644531 -0.0859375 1.40625 -0.046875 C 1.164062 -0.015625 0.960938 0 0.796875 0 L -0.8125 0 L 0.359375 -0.65625 C 0.472656 -0.8125 0.585938 -0.96875 0.703125 -1.125 C 0.816406 -1.28125 0.914062 -1.425781 1 -1.5625 C 1.082031 -1.707031 1.164062 -1.851562 1.25 -2 C 1.46875 -2.445312 1.796875 -3.175781 2.234375 -4.1875 C 2.410156 -4.613281 2.617188 -5.117188 2.859375 -5.703125 C 3.109375 -6.296875 3.390625 -6.984375 3.703125 -7.765625 C 4.023438 -8.546875 4.382812 -9.4375 4.78125 -10.4375 C 5.175781 -11.4375 5.613281 -12.554688 6.09375 -13.796875 L 7.953125 -15.5 L 12.140625 -1.3125 C 12.429688 -1.238281 12.710938 -1.1875 12.984375 -1.15625 C 13.265625 -1.132812 13.523438 -1.125 13.765625 -1.125 C 13.898438 -1.125 14.019531 -1.125 14.125 -1.125 C 14.226562 -1.132812 14.320312 -1.144531 14.40625 -1.15625 C 14.488281 -1.15625 14.566406 -1.164062 14.640625 -1.1875 C 14.234375 -0.988281 13.875 -0.816406 13.5625 -0.671875 C 13.257812 -0.523438 12.988281 -0.398438 12.75 -0.296875 C 12.507812 -0.203125 12.285156 -0.128906 12.078125 -0.078125 C 11.878906 -0.0234375 11.675781 0 11.46875 0 L 9.765625 0 L 10.328125 -0.359375 L 8.609375 -6.015625 C 8.398438 -5.953125 8.160156 -5.894531 7.890625 -5.84375 C 7.628906 -5.789062 7.3125 -5.742188 6.9375 -5.703125 C 6.5625 -5.660156 6.125 -5.617188 5.625 -5.578125 C 5.132812 -5.546875 4.566406 -5.515625 3.921875 -5.484375 C 3.617188 -4.847656 3.34375 -4.285156 3.09375 -3.796875 C 2.84375 -3.304688 2.617188 -2.878906 2.421875 -2.515625 C 2.222656 -2.148438 2.046875 -1.84375 1.890625 -1.59375 C 1.742188 -1.351562 1.613281 -1.15625 1.5 -1 C 1.625 -0.976562 1.757812 -0.960938 1.90625 -0.953125 C 2.0625 -0.941406 2.210938 -0.9375 2.359375 -0.9375 C 2.585938 -0.9375 2.8125 -0.945312 3.03125 -0.96875 C 3.257812 -0.988281 3.46875 -1.007812 3.65625 -1.03125 C 3.863281 -1.050781 4.066406 -1.078125 4.265625 -1.109375 Z M 5.75 -6.75 C 6.707031 -6.75 7.582031 -6.773438 8.375 -6.828125 L 6.734375 -12.25 C 6.296875 -11.113281 5.890625 -10.097656 5.515625 -9.203125 C 5.148438 -8.316406 4.804688 -7.5 4.484375 -6.75 Z M 5.75 -6.75 "/></g></g></g><g fill="#ffffff" fill-opacity="1"><g transform="translate(130.024216, 228.568294)"><g><path d="M 6.171875 -15.890625 C 5.835938 -15.671875 5.535156 -15.488281 5.265625 -15.34375 C 4.992188 -15.195312 4.738281 -15.070312 4.5 -14.96875 C 4.488281 -14.363281 4.472656 -13.796875 4.453125 -13.265625 C 4.441406 -12.742188 4.429688 -12.25 4.421875 -11.78125 C 4.410156 -11.320312 4.398438 -10.882812 4.390625 -10.46875 C 4.390625 -10.0625 4.382812 -9.664062 4.375 -9.28125 C 4.75 -9.363281 5.140625 -9.40625 5.546875 -9.40625 C 5.941406 -9.40625 6.394531 -9.398438 6.90625 -9.390625 C 7.425781 -9.378906 7.960938 -9.363281 8.515625 -9.34375 C 9.066406 -9.320312 9.625 -9.304688 10.1875 -9.296875 C 10.75 -9.285156 11.273438 -9.28125 11.765625 -9.28125 L 12.265625 -9.28125 L 12.265625 -14.59375 C 12.046875 -14.570312 11.773438 -14.546875 11.453125 -14.515625 C 11.140625 -14.484375 10.785156 -14.441406 10.390625 -14.390625 C 10.773438 -14.703125 11.117188 -14.9375 11.421875 -15.09375 C 11.722656 -15.257812 11.984375 -15.378906 12.203125 -15.453125 C 12.460938 -15.535156 12.691406 -15.585938 12.890625 -15.609375 C 13.148438 -15.609375 13.425781 -15.613281 13.71875 -15.625 C 14.019531 -15.632812 14.3125 -15.648438 14.59375 -15.671875 C 14.882812 -15.703125 15.144531 -15.734375 15.375 -15.765625 C 15.601562 -15.804688 15.773438 -15.847656 15.890625 -15.890625 C 15.554688 -15.671875 15.253906 -15.488281 14.984375 -15.34375 C 14.722656 -15.195312 14.472656 -15.070312 14.234375 -14.96875 C 14.191406 -13.675781 14.160156 -12.519531 14.140625 -11.5 C 14.117188 -10.488281 14.097656 -9.585938 14.078125 -8.796875 C 14.066406 -8.015625 14.054688 -7.332031 14.046875 -6.75 C 14.035156 -6.175781 14.023438 -5.6875 14.015625 -5.28125 C 13.992188 -4.332031 13.988281 -3.6875 14 -3.34375 C 13.988281 -3.082031 13.953125 -2.820312 13.890625 -2.5625 C 13.828125 -2.34375 13.738281 -2.101562 13.625 -1.84375 C 13.507812 -1.59375 13.347656 -1.363281 13.140625 -1.15625 C 13.265625 -1.144531 13.382812 -1.132812 13.5 -1.125 C 13.625 -1.125 13.75 -1.125 13.875 -1.125 C 14.207031 -1.125 14.503906 -1.140625 14.765625 -1.171875 C 15.035156 -1.210938 15.269531 -1.25 15.46875 -1.28125 C 15.664062 -1.3125 15.820312 -1.34375 15.9375 -1.375 C 16.050781 -1.414062 16.125 -1.445312 16.15625 -1.46875 C 15.769531 -1.207031 15.453125 -0.984375 15.203125 -0.796875 C 14.960938 -0.609375 14.738281 -0.457031 14.53125 -0.34375 C 14.332031 -0.226562 14.140625 -0.140625 13.953125 -0.078125 C 13.765625 -0.0234375 13.539062 0 13.28125 0 C 12.945312 0 12.660156 -0.0078125 12.421875 -0.03125 C 12.179688 -0.0625 11.941406 -0.078125 11.703125 -0.078125 C 11.578125 -0.078125 11.453125 -0.0703125 11.328125 -0.0625 C 11.203125 -0.0507812 11.0625 -0.03125 10.90625 0 C 11.132812 -0.101562 11.332031 -0.210938 11.5 -0.328125 C 11.675781 -0.453125 11.816406 -0.617188 11.921875 -0.828125 C 12.035156 -1.035156 12.117188 -1.3125 12.171875 -1.65625 C 12.234375 -2 12.265625 -2.460938 12.265625 -3.046875 L 12.265625 -8.59375 C 12.054688 -8.550781 11.820312 -8.515625 11.5625 -8.484375 C 11.3125 -8.453125 11.019531 -8.4375 10.6875 -8.4375 C 10.21875 -8.4375 9.675781 -8.453125 9.0625 -8.484375 C 8.445312 -8.515625 7.769531 -8.53125 7.03125 -8.53125 C 6.59375 -8.53125 6.148438 -8.519531 5.703125 -8.5 C 5.265625 -8.476562 4.816406 -8.441406 4.359375 -8.390625 C 4.328125 -7.347656 4.304688 -6.5 4.296875 -5.84375 C 4.285156 -5.1875 4.273438 -4.671875 4.265625 -4.296875 C 4.265625 -3.867188 4.265625 -3.550781 4.265625 -3.34375 C 4.253906 -3.082031 4.21875 -2.820312 4.15625 -2.5625 C 4.09375 -2.34375 4.003906 -2.101562 3.890625 -1.84375 C 3.773438 -1.59375 3.613281 -1.363281 3.40625 -1.15625 C 3.539062 -1.144531 3.664062 -1.132812 3.78125 -1.125 C 3.90625 -1.125 4.03125 -1.125 4.15625 -1.125 C 4.488281 -1.125 4.785156 -1.140625 5.046875 -1.171875 C 5.316406 -1.210938 5.550781 -1.25 5.75 -1.28125 C 5.945312 -1.3125 6.097656 -1.34375 6.203125 -1.375 C 6.316406 -1.414062 6.390625 -1.445312 6.421875 -1.46875 C 6.046875 -1.207031 5.734375 -0.984375 5.484375 -0.796875 C 5.234375 -0.609375 5.007812 -0.457031 4.8125 -0.34375 C 4.613281 -0.226562 4.421875 -0.140625 4.234375 -0.078125 C 4.046875 -0.0234375 3.820312 0 3.5625 0 C 3.21875 0 2.925781 -0.0078125 2.6875 -0.03125 C 2.445312 -0.0625 2.207031 -0.078125 1.96875 -0.078125 C 1.84375 -0.078125 1.71875 -0.0703125 1.59375 -0.0625 C 1.46875 -0.0507812 1.332031 -0.03125 1.1875 0 C 1.382812 -0.164062 1.5625 -0.347656 1.71875 -0.546875 C 1.882812 -0.753906 2.023438 -1.003906 2.140625 -1.296875 C 2.265625 -1.585938 2.359375 -1.9375 2.421875 -2.34375 C 2.484375 -2.75 2.515625 -3.242188 2.515625 -3.828125 L 2.515625 -8.0625 C 2.359375 -8.03125 2.195312 -7.992188 2.03125 -7.953125 C 1.875 -7.910156 1.71875 -7.859375 1.5625 -7.796875 C 1.71875 -7.941406 1.875 -8.070312 2.03125 -8.1875 C 2.195312 -8.3125 2.359375 -8.429688 2.515625 -8.546875 L 2.515625 -14.59375 C 2.296875 -14.570312 2.03125 -14.546875 1.71875 -14.515625 C 1.40625 -14.484375 1.050781 -14.441406 0.65625 -14.390625 C 1.039062 -14.703125 1.382812 -14.9375 1.6875 -15.09375 C 2 -15.257812 2.265625 -15.378906 2.484375 -15.453125 C 2.742188 -15.535156 2.972656 -15.585938 3.171875 -15.609375 C 3.421875 -15.609375 3.695312 -15.613281 4 -15.625 C 4.300781 -15.632812 4.59375 -15.648438 4.875 -15.671875 C 5.15625 -15.703125 5.410156 -15.734375 5.640625 -15.765625 C 5.878906 -15.804688 6.054688 -15.847656 6.171875 -15.890625 Z M 6.421875 -1.46875 C 6.429688 -1.476562 6.441406 -1.484375 6.453125 -1.484375 Z M 16.15625 -1.46875 C 16.164062 -1.476562 16.175781 -1.484375 16.1875 -1.484375 Z M 16.15625 -1.46875 "/></g></g></g><g fill="#ffffff" fill-opacity="1"><g transform="translate(148.210183, 228.568294)"><g><path d="M 6.078125 -15.40625 C 5.785156 -15.207031 5.46875 -15 5.125 -14.78125 C 4.78125 -14.5625 4.445312 -14.382812 4.125 -14.25 C 4.101562 -13.34375 4.082031 -12.515625 4.0625 -11.765625 C 4.039062 -11.015625 4.019531 -10.335938 4 -9.734375 C 3.988281 -9.140625 3.976562 -8.609375 3.96875 -8.140625 C 3.957031 -7.679688 3.953125 -7.273438 3.953125 -6.921875 C 3.929688 -6.109375 3.925781 -5.488281 3.9375 -5.0625 C 3.925781 -4.5625 4 -4.070312 4.15625 -3.59375 C 4.3125 -3.113281 4.5625 -2.6875 4.90625 -2.3125 C 5.257812 -1.9375 5.722656 -1.632812 6.296875 -1.40625 C 6.867188 -1.175781 7.5625 -1.0625 8.375 -1.0625 C 8.8125 -1.082031 9.269531 -1.148438 9.75 -1.265625 C 10.15625 -1.359375 10.601562 -1.503906 11.09375 -1.703125 C 11.582031 -1.898438 12.0625 -2.191406 12.53125 -2.578125 L 12.53125 -14.125 C 12.425781 -14.132812 12.320312 -14.140625 12.21875 -14.140625 C 12.113281 -14.140625 12.007812 -14.140625 11.90625 -14.140625 C 11.707031 -14.140625 11.507812 -14.132812 11.3125 -14.125 C 11.125 -14.113281 10.945312 -14.097656 10.78125 -14.078125 C 11.113281 -14.378906 11.410156 -14.609375 11.671875 -14.765625 C 11.929688 -14.921875 12.15625 -15.035156 12.34375 -15.109375 C 12.550781 -15.191406 12.734375 -15.242188 12.890625 -15.265625 C 13.023438 -15.265625 13.195312 -15.265625 13.40625 -15.265625 C 13.613281 -15.273438 13.832031 -15.28125 14.0625 -15.28125 C 14.289062 -15.289062 14.523438 -15.300781 14.765625 -15.3125 C 15.003906 -15.320312 15.222656 -15.332031 15.421875 -15.34375 C 15.628906 -15.351562 15.804688 -15.363281 15.953125 -15.375 C 16.097656 -15.382812 16.195312 -15.394531 16.25 -15.40625 C 16 -15.226562 15.71875 -15.039062 15.40625 -14.84375 C 15.09375 -14.65625 14.796875 -14.492188 14.515625 -14.359375 L 14.515625 -3.359375 C 14.503906 -3.015625 14.484375 -2.691406 14.453125 -2.390625 C 14.421875 -2.128906 14.375 -1.875 14.3125 -1.625 C 14.25 -1.382812 14.15625 -1.21875 14.03125 -1.125 C 14.4375 -1.070312 14.789062 -1.035156 15.09375 -1.015625 C 15.394531 -1.003906 15.660156 -1 15.890625 -1 C 16.296875 -1 16.585938 -1.015625 16.765625 -1.046875 C 16.941406 -1.078125 17.039062 -1.097656 17.0625 -1.109375 C 16.726562 -0.921875 16.421875 -0.753906 16.140625 -0.609375 C 15.867188 -0.472656 15.609375 -0.359375 15.359375 -0.265625 C 15.117188 -0.179688 14.878906 -0.113281 14.640625 -0.0625 C 14.410156 -0.0195312 14.179688 0 13.953125 0 L 11.875 0 C 12.03125 -0.0507812 12.148438 -0.171875 12.234375 -0.359375 C 12.328125 -0.554688 12.398438 -0.757812 12.453125 -0.96875 C 12.492188 -1.207031 12.519531 -1.46875 12.53125 -1.75 L 12.53125 -2.25 C 11.78125 -1.632812 11.0625 -1.164062 10.375 -0.84375 C 9.6875 -0.519531 9.078125 -0.28125 8.546875 -0.125 C 7.929688 0.0507812 7.347656 0.148438 6.796875 0.171875 C 5.898438 0.171875 5.144531 0.0507812 4.53125 -0.1875 C 3.925781 -0.425781 3.441406 -0.757812 3.078125 -1.1875 C 2.710938 -1.613281 2.453125 -2.125 2.296875 -2.71875 C 2.148438 -3.320312 2.085938 -3.984375 2.109375 -4.703125 C 2.097656 -5.285156 2.097656 -6.023438 2.109375 -6.921875 C 2.117188 -7.691406 2.128906 -8.671875 2.140625 -9.859375 C 2.160156 -11.046875 2.191406 -12.472656 2.234375 -14.140625 L 1.75 -14.140625 C 1.550781 -14.140625 1.351562 -14.132812 1.15625 -14.125 C 0.957031 -14.113281 0.773438 -14.097656 0.609375 -14.078125 C 0.941406 -14.378906 1.238281 -14.609375 1.5 -14.765625 C 1.757812 -14.921875 1.984375 -15.035156 2.171875 -15.109375 C 2.378906 -15.191406 2.566406 -15.242188 2.734375 -15.265625 C 2.867188 -15.265625 3.035156 -15.265625 3.234375 -15.265625 C 3.441406 -15.273438 3.660156 -15.28125 3.890625 -15.28125 C 4.128906 -15.289062 4.367188 -15.300781 4.609375 -15.3125 C 4.847656 -15.320312 5.066406 -15.332031 5.265625 -15.34375 C 5.472656 -15.351562 5.644531 -15.363281 5.78125 -15.375 C 5.925781 -15.382812 6.023438 -15.394531 6.078125 -15.40625 Z M 17.0625 -1.109375 L 17.0625 -1.125 L 17.078125 -1.125 C 17.085938 -1.125 17.09375 -1.125 17.09375 -1.125 Z M 17.0625 -1.109375 "/></g></g></g><g fill="#ffffff" fill-opacity="1"><g transform="translate(166.812472, 228.568294)"><g><path d="M 6.171875 -15.8125 C 5.835938 -15.59375 5.535156 -15.40625 5.265625 -15.25 C 4.992188 -15.09375 4.738281 -14.96875 4.5 -14.875 C 4.46875 -13.582031 4.4375 -12.425781 4.40625 -11.40625 C 4.382812 -10.394531 4.363281 -9.492188 4.34375 -8.703125 C 4.332031 -7.921875 4.320312 -7.242188 4.3125 -6.671875 C 4.300781 -6.097656 4.289062 -5.609375 4.28125 -5.203125 C 4.257812 -4.253906 4.253906 -3.601562 4.265625 -3.25 C 4.253906 -2.988281 4.222656 -2.738281 4.171875 -2.5 C 4.128906 -2.289062 4.0625 -2.070312 3.96875 -1.84375 C 3.875 -1.613281 3.75 -1.414062 3.59375 -1.25 C 4.019531 -1.238281 4.414062 -1.234375 4.78125 -1.234375 C 5.15625 -1.234375 5.515625 -1.234375 5.859375 -1.234375 C 6.835938 -1.234375 7.640625 -1.242188 8.265625 -1.265625 C 8.898438 -1.296875 9.40625 -1.332031 9.78125 -1.375 C 10.164062 -1.414062 10.4375 -1.453125 10.59375 -1.484375 C 10.75 -1.515625 10.835938 -1.535156 10.859375 -1.546875 C 10.484375 -1.285156 10.171875 -1.0625 9.921875 -0.875 C 9.671875 -0.695312 9.445312 -0.546875 9.25 -0.421875 C 9.0625 -0.304688 8.875 -0.21875 8.6875 -0.15625 C 8.5 -0.101562 8.28125 -0.078125 8.03125 -0.078125 L 6.375 -0.078125 C 5.914062 -0.078125 5.414062 -0.078125 4.875 -0.078125 C 4.332031 -0.078125 3.816406 -0.0703125 3.328125 -0.0625 C 2.835938 -0.0507812 2.398438 -0.03125 2.015625 0 C 1.628906 0.0195312 1.351562 0.046875 1.1875 0.078125 C 1.382812 -0.0859375 1.5625 -0.269531 1.71875 -0.46875 C 1.882812 -0.664062 2.023438 -0.910156 2.140625 -1.203125 C 2.265625 -1.492188 2.359375 -1.84375 2.421875 -2.25 C 2.484375 -2.664062 2.515625 -3.160156 2.515625 -3.734375 L 2.515625 -14.515625 C 2.296875 -14.492188 2.03125 -14.460938 1.71875 -14.421875 C 1.40625 -14.390625 1.050781 -14.347656 0.65625 -14.296875 C 1.039062 -14.609375 1.382812 -14.84375 1.6875 -15 C 2 -15.164062 2.265625 -15.289062 2.484375 -15.375 C 2.742188 -15.457031 2.972656 -15.503906 3.171875 -15.515625 C 3.421875 -15.515625 3.695312 -15.519531 4 -15.53125 C 4.300781 -15.539062 4.59375 -15.554688 4.875 -15.578125 C 5.15625 -15.609375 5.410156 -15.644531 5.640625 -15.6875 C 5.878906 -15.726562 6.054688 -15.769531 6.171875 -15.8125 Z M 10.859375 -1.546875 L 10.859375 -1.5625 C 10.867188 -1.5625 10.878906 -1.5625 10.890625 -1.5625 Z M 10.859375 -1.546875 "/></g></g></g><g fill="#ffffff" fill-opacity="1"><g transform="translate(178.838992, 228.568294)"><g/></g></g><g fill="#ffffff" fill-opacity="1"><g transform="translate(185.92301, 228.568294)"><g><path d="M 14.078125 -14.671875 C 13.953125 -14.503906 13.796875 -14.34375 13.609375 -14.1875 C 13.453125 -14.050781 13.257812 -13.90625 13.03125 -13.75 C 12.800781 -13.601562 12.53125 -13.472656 12.21875 -13.359375 C 12.320312 -13.484375 12.332031 -13.617188 12.25 -13.765625 C 12.164062 -13.910156 11.984375 -14.039062 11.703125 -14.15625 C 11.429688 -14.28125 11.054688 -14.378906 10.578125 -14.453125 C 10.109375 -14.535156 9.53125 -14.578125 8.84375 -14.578125 C 8.445312 -14.578125 8.019531 -14.535156 7.5625 -14.453125 C 7.101562 -14.367188 6.648438 -14.226562 6.203125 -14.03125 C 5.753906 -13.832031 5.320312 -13.566406 4.90625 -13.234375 C 4.488281 -12.910156 4.117188 -12.5 3.796875 -12 C 3.472656 -11.507812 3.21875 -10.921875 3.03125 -10.234375 C 2.84375 -9.554688 2.75 -8.773438 2.75 -7.890625 C 2.75 -6.992188 2.859375 -6.207031 3.078125 -5.53125 C 3.296875 -4.863281 3.582031 -4.285156 3.9375 -3.796875 C 4.300781 -3.304688 4.710938 -2.898438 5.171875 -2.578125 C 5.640625 -2.253906 6.113281 -1.992188 6.59375 -1.796875 C 7.082031 -1.597656 7.554688 -1.457031 8.015625 -1.375 C 8.484375 -1.300781 8.90625 -1.265625 9.28125 -1.265625 C 9.71875 -1.273438 10.171875 -1.304688 10.640625 -1.359375 C 11.046875 -1.410156 11.492188 -1.484375 11.984375 -1.578125 C 12.472656 -1.679688 12.953125 -1.820312 13.421875 -2 C 12.722656 -1.445312 12.078125 -1.023438 11.484375 -0.734375 C 10.898438 -0.441406 10.382812 -0.222656 9.9375 -0.078125 C 9.414062 0.078125 8.9375 0.164062 8.5 0.1875 C 7.445312 0.1875 6.453125 0.0351562 5.515625 -0.265625 C 4.585938 -0.578125 3.773438 -1.023438 3.078125 -1.609375 C 2.378906 -2.203125 1.828125 -2.925781 1.421875 -3.78125 C 1.015625 -4.632812 0.8125 -5.601562 0.8125 -6.6875 C 0.8125 -7.363281 0.875 -7.992188 1 -8.578125 C 1.132812 -9.160156 1.304688 -9.691406 1.515625 -10.171875 C 1.722656 -10.648438 1.957031 -11.082031 2.21875 -11.46875 C 2.476562 -11.863281 2.742188 -12.207031 3.015625 -12.5 C 3.296875 -12.800781 3.566406 -13.050781 3.828125 -13.25 C 4.085938 -13.445312 4.3125 -13.597656 4.5 -13.703125 C 4.6875 -13.804688 4.921875 -13.925781 5.203125 -14.0625 C 5.492188 -14.195312 5.8125 -14.332031 6.15625 -14.46875 C 6.507812 -14.613281 6.875 -14.753906 7.25 -14.890625 C 7.632812 -15.023438 8.023438 -15.144531 8.421875 -15.25 C 8.828125 -15.351562 9.21875 -15.4375 9.59375 -15.5 C 9.976562 -15.570312 10.34375 -15.609375 10.6875 -15.609375 C 11.445312 -15.609375 12.0625 -15.570312 12.53125 -15.5 C 13 -15.425781 13.351562 -15.335938 13.59375 -15.234375 C 13.84375 -15.128906 14 -15.023438 14.0625 -14.921875 C 14.125 -14.816406 14.128906 -14.734375 14.078125 -14.671875 Z M 14.078125 -14.671875 "/></g></g></g><g fill="#ffffff" fill-opacity="1"><g transform="translate(201.792512, 228.568294)"><g><path d="M 6.171875 -15.890625 C 5.835938 -15.671875 5.535156 -15.488281 5.265625 -15.34375 C 4.992188 -15.195312 4.738281 -15.070312 4.5 -14.96875 C 4.488281 -14.363281 4.472656 -13.796875 4.453125 -13.265625 C 4.441406 -12.742188 4.429688 -12.25 4.421875 -11.78125 C 4.410156 -11.320312 4.398438 -10.882812 4.390625 -10.46875 C 4.390625 -10.0625 4.382812 -9.664062 4.375 -9.28125 C 4.75 -9.363281 5.140625 -9.40625 5.546875 -9.40625 C 5.941406 -9.40625 6.394531 -9.398438 6.90625 -9.390625 C 7.425781 -9.378906 7.960938 -9.363281 8.515625 -9.34375 C 9.066406 -9.320312 9.625 -9.304688 10.1875 -9.296875 C 10.75 -9.285156 11.273438 -9.28125 11.765625 -9.28125 L 12.265625 -9.28125 L 12.265625 -14.59375 C 12.046875 -14.570312 11.773438 -14.546875 11.453125 -14.515625 C 11.140625 -14.484375 10.785156 -14.441406 10.390625 -14.390625 C 10.773438 -14.703125 11.117188 -14.9375 11.421875 -15.09375 C 11.722656 -15.257812 11.984375 -15.378906 12.203125 -15.453125 C 12.460938 -15.535156 12.691406 -15.585938 12.890625 -15.609375 C 13.148438 -15.609375 13.425781 -15.613281 13.71875 -15.625 C 14.019531 -15.632812 14.3125 -15.648438 14.59375 -15.671875 C 14.882812 -15.703125 15.144531 -15.734375 15.375 -15.765625 C 15.601562 -15.804688 15.773438 -15.847656 15.890625 -15.890625 C 15.554688 -15.671875 15.253906 -15.488281 14.984375 -15.34375 C 14.722656 -15.195312 14.472656 -15.070312 14.234375 -14.96875 C 14.191406 -13.675781 14.160156 -12.519531 14.140625 -11.5 C 14.117188 -10.488281 14.097656 -9.585938 14.078125 -8.796875 C 14.066406 -8.015625 14.054688 -7.332031 14.046875 -6.75 C 14.035156 -6.175781 14.023438 -5.6875 14.015625 -5.28125 C 13.992188 -4.332031 13.988281 -3.6875 14 -3.34375 C 13.988281 -3.082031 13.953125 -2.820312 13.890625 -2.5625 C 13.828125 -2.34375 13.738281 -2.101562 13.625 -1.84375 C 13.507812 -1.59375 13.347656 -1.363281 13.140625 -1.15625 C 13.265625 -1.144531 13.382812 -1.132812 13.5 -1.125 C 13.625 -1.125 13.75 -1.125 13.875 -1.125 C 14.207031 -1.125 14.503906 -1.140625 14.765625 -1.171875 C 15.035156 -1.210938 15.269531 -1.25 15.46875 -1.28125 C 15.664062 -1.3125 15.820312 -1.34375 15.9375 -1.375 C 16.050781 -1.414062 16.125 -1.445312 16.15625 -1.46875 C 15.769531 -1.207031 15.453125 -0.984375 15.203125 -0.796875 C 14.960938 -0.609375 14.738281 -0.457031 14.53125 -0.34375 C 14.332031 -0.226562 14.140625 -0.140625 13.953125 -0.078125 C 13.765625 -0.0234375 13.539062 0 13.28125 0 C 12.945312 0 12.660156 -0.0078125 12.421875 -0.03125 C 12.179688 -0.0625 11.941406 -0.078125 11.703125 -0.078125 C 11.578125 -0.078125 11.453125 -0.0703125 11.328125 -0.0625 C 11.203125 -0.0507812 11.0625 -0.03125 10.90625 0 C 11.132812 -0.101562 11.332031 -0.210938 11.5 -0.328125 C 11.675781 -0.453125 11.816406 -0.617188 11.921875 -0.828125 C 12.035156 -1.035156 12.117188 -1.3125 12.171875 -1.65625 C 12.234375 -2 12.265625 -2.460938 12.265625 -3.046875 L 12.265625 -8.59375 C 12.054688 -8.550781 11.820312 -8.515625 11.5625 -8.484375 C 11.3125 -8.453125 11.019531 -8.4375 10.6875 -8.4375 C 10.21875 -8.4375 9.675781 -8.453125 9.0625 -8.484375 C 8.445312 -8.515625 7.769531 -8.53125 7.03125 -8.53125 C 6.59375 -8.53125 6.148438 -8.519531 5.703125 -8.5 C 5.265625 -8.476562 4.816406 -8.441406 4.359375 -8.390625 C 4.328125 -7.347656 4.304688 -6.5 4.296875 -5.84375 C 4.285156 -5.1875 4.273438 -4.671875 4.265625 -4.296875 C 4.265625 -3.867188 4.265625 -3.550781 4.265625 -3.34375 C 4.253906 -3.082031 4.21875 -2.820312 4.15625 -2.5625 C 4.09375 -2.34375 4.003906 -2.101562 3.890625 -1.84375 C 3.773438 -1.59375 3.613281 -1.363281 3.40625 -1.15625 C 3.539062 -1.144531 3.664062 -1.132812 3.78125 -1.125 C 3.90625 -1.125 4.03125 -1.125 4.15625 -1.125 C 4.488281 -1.125 4.785156 -1.140625 5.046875 -1.171875 C 5.316406 -1.210938 5.550781 -1.25 5.75 -1.28125 C 5.945312 -1.3125 6.097656 -1.34375 6.203125 -1.375 C 6.316406 -1.414062 6.390625 -1.445312 6.421875 -1.46875 C 6.046875 -1.207031 5.734375 -0.984375 5.484375 -0.796875 C 5.234375 -0.609375 5.007812 -0.457031 4.8125 -0.34375 C 4.613281 -0.226562 4.421875 -0.140625 4.234375 -0.078125 C 4.046875 -0.0234375 3.820312 0 3.5625 0 C 3.21875 0 2.925781 -0.0078125 2.6875 -0.03125 C 2.445312 -0.0625 2.207031 -0.078125 1.96875 -0.078125 C 1.84375 -0.078125 1.71875 -0.0703125 1.59375 -0.0625 C 1.46875 -0.0507812 1.332031 -0.03125 1.1875 0 C 1.382812 -0.164062 1.5625 -0.347656 1.71875 -0.546875 C 1.882812 -0.753906 2.023438 -1.003906 2.140625 -1.296875 C 2.265625 -1.585938 2.359375 -1.9375 2.421875 -2.34375 C 2.484375 -2.75 2.515625 -3.242188 2.515625 -3.828125 L 2.515625 -8.0625 C 2.359375 -8.03125 2.195312 -7.992188 2.03125 -7.953125 C 1.875 -7.910156 1.71875 -7.859375 1.5625 -7.796875 C 1.71875 -7.941406 1.875 -8.070312 2.03125 -8.1875 C 2.195312 -8.3125 2.359375 -8.429688 2.515625 -8.546875 L 2.515625 -14.59375 C 2.296875 -14.570312 2.03125 -14.546875 1.71875 -14.515625 C 1.40625 -14.484375 1.050781 -14.441406 0.65625 -14.390625 C 1.039062 -14.703125 1.382812 -14.9375 1.6875 -15.09375 C 2 -15.257812 2.265625 -15.378906 2.484375 -15.453125 C 2.742188 -15.535156 2.972656 -15.585938 3.171875 -15.609375 C 3.421875 -15.609375 3.695312 -15.613281 4 -15.625 C 4.300781 -15.632812 4.59375 -15.648438 4.875 -15.671875 C 5.15625 -15.703125 5.410156 -15.734375 5.640625 -15.765625 C 5.878906 -15.804688 6.054688 -15.847656 6.171875 -15.890625 Z M 6.421875 -1.46875 C 6.429688 -1.476562 6.441406 -1.484375 6.453125 -1.484375 Z M 16.15625 -1.46875 C 16.164062 -1.476562 16.175781 -1.484375 16.1875 -1.484375 Z M 16.15625 -1.46875 "/></g></g></g><g fill="#ffffff" fill-opacity="1"><g transform="translate(219.978479, 228.568294)"><g><path d="M 4.265625 -1.109375 C 3.878906 -0.898438 3.515625 -0.722656 3.171875 -0.578125 C 2.828125 -0.429688 2.503906 -0.316406 2.203125 -0.234375 C 1.910156 -0.148438 1.644531 -0.0859375 1.40625 -0.046875 C 1.164062 -0.015625 0.960938 0 0.796875 0 L -0.8125 0 L 0.359375 -0.65625 C 0.472656 -0.8125 0.585938 -0.96875 0.703125 -1.125 C 0.816406 -1.28125 0.914062 -1.425781 1 -1.5625 C 1.082031 -1.707031 1.164062 -1.851562 1.25 -2 C 1.46875 -2.445312 1.796875 -3.175781 2.234375 -4.1875 C 2.410156 -4.613281 2.617188 -5.117188 2.859375 -5.703125 C 3.109375 -6.296875 3.390625 -6.984375 3.703125 -7.765625 C 4.023438 -8.546875 4.382812 -9.4375 4.78125 -10.4375 C 5.175781 -11.4375 5.613281 -12.554688 6.09375 -13.796875 L 7.953125 -15.5 L 12.140625 -1.3125 C 12.429688 -1.238281 12.710938 -1.1875 12.984375 -1.15625 C 13.265625 -1.132812 13.523438 -1.125 13.765625 -1.125 C 13.898438 -1.125 14.019531 -1.125 14.125 -1.125 C 14.226562 -1.132812 14.320312 -1.144531 14.40625 -1.15625 C 14.488281 -1.15625 14.566406 -1.164062 14.640625 -1.1875 C 14.234375 -0.988281 13.875 -0.816406 13.5625 -0.671875 C 13.257812 -0.523438 12.988281 -0.398438 12.75 -0.296875 C 12.507812 -0.203125 12.285156 -0.128906 12.078125 -0.078125 C 11.878906 -0.0234375 11.675781 0 11.46875 0 L 9.765625 0 L 10.328125 -0.359375 L 8.609375 -6.015625 C 8.398438 -5.953125 8.160156 -5.894531 7.890625 -5.84375 C 7.628906 -5.789062 7.3125 -5.742188 6.9375 -5.703125 C 6.5625 -5.660156 6.125 -5.617188 5.625 -5.578125 C 5.132812 -5.546875 4.566406 -5.515625 3.921875 -5.484375 C 3.617188 -4.847656 3.34375 -4.285156 3.09375 -3.796875 C 2.84375 -3.304688 2.617188 -2.878906 2.421875 -2.515625 C 2.222656 -2.148438 2.046875 -1.84375 1.890625 -1.59375 C 1.742188 -1.351562 1.613281 -1.15625 1.5 -1 C 1.625 -0.976562 1.757812 -0.960938 1.90625 -0.953125 C 2.0625 -0.941406 2.210938 -0.9375 2.359375 -0.9375 C 2.585938 -0.9375 2.8125 -0.945312 3.03125 -0.96875 C 3.257812 -0.988281 3.46875 -1.007812 3.65625 -1.03125 C 3.863281 -1.050781 4.066406 -1.078125 4.265625 -1.109375 Z M 5.75 -6.75 C 6.707031 -6.75 7.582031 -6.773438 8.375 -6.828125 L 6.734375 -12.25 C 6.296875 -11.113281 5.890625 -10.097656 5.515625 -9.203125 C 5.148438 -8.316406 4.804688 -7.5 4.484375 -6.75 Z M 5.75 -6.75 "/></g></g></g><g fill="#ffffff" fill-opacity="1"><g transform="translate(235.591788, 228.568294)"><g><path d="M 6.078125 -15.40625 C 5.785156 -15.207031 5.46875 -15 5.125 -14.78125 C 4.78125 -14.5625 4.445312 -14.382812 4.125 -14.25 C 4.101562 -13.34375 4.082031 -12.515625 4.0625 -11.765625 C 4.039062 -11.015625 4.019531 -10.335938 4 -9.734375 C 3.988281 -9.140625 3.976562 -8.609375 3.96875 -8.140625 C 3.957031 -7.679688 3.953125 -7.273438 3.953125 -6.921875 C 3.929688 -6.109375 3.925781 -5.488281 3.9375 -5.0625 C 3.925781 -4.5625 4 -4.070312 4.15625 -3.59375 C 4.3125 -3.113281 4.5625 -2.6875 4.90625 -2.3125 C 5.257812 -1.9375 5.722656 -1.632812 6.296875 -1.40625 C 6.867188 -1.175781 7.5625 -1.0625 8.375 -1.0625 C 8.8125 -1.082031 9.269531 -1.148438 9.75 -1.265625 C 10.15625 -1.359375 10.601562 -1.503906 11.09375 -1.703125 C 11.582031 -1.898438 12.0625 -2.191406 12.53125 -2.578125 L 12.53125 -14.125 C 12.425781 -14.132812 12.320312 -14.140625 12.21875 -14.140625 C 12.113281 -14.140625 12.007812 -14.140625 11.90625 -14.140625 C 11.707031 -14.140625 11.507812 -14.132812 11.3125 -14.125 C 11.125 -14.113281 10.945312 -14.097656 10.78125 -14.078125 C 11.113281 -14.378906 11.410156 -14.609375 11.671875 -14.765625 C 11.929688 -14.921875 12.15625 -15.035156 12.34375 -15.109375 C 12.550781 -15.191406 12.734375 -15.242188 12.890625 -15.265625 C 13.023438 -15.265625 13.195312 -15.265625 13.40625 -15.265625 C 13.613281 -15.273438 13.832031 -15.28125 14.0625 -15.28125 C 14.289062 -15.289062 14.523438 -15.300781 14.765625 -15.3125 C 15.003906 -15.320312 15.222656 -15.332031 15.421875 -15.34375 C 15.628906 -15.351562 15.804688 -15.363281 15.953125 -15.375 C 16.097656 -15.382812 16.195312 -15.394531 16.25 -15.40625 C 16 -15.226562 15.71875 -15.039062 15.40625 -14.84375 C 15.09375 -14.65625 14.796875 -14.492188 14.515625 -14.359375 L 14.515625 -3.359375 C 14.503906 -3.015625 14.484375 -2.691406 14.453125 -2.390625 C 14.421875 -2.128906 14.375 -1.875 14.3125 -1.625 C 14.25 -1.382812 14.15625 -1.21875 14.03125 -1.125 C 14.4375 -1.070312 14.789062 -1.035156 15.09375 -1.015625 C 15.394531 -1.003906 15.660156 -1 15.890625 -1 C 16.296875 -1 16.585938 -1.015625 16.765625 -1.046875 C 16.941406 -1.078125 17.039062 -1.097656 17.0625 -1.109375 C 16.726562 -0.921875 16.421875 -0.753906 16.140625 -0.609375 C 15.867188 -0.472656 15.609375 -0.359375 15.359375 -0.265625 C 15.117188 -0.179688 14.878906 -0.113281 14.640625 -0.0625 C 14.410156 -0.0195312 14.179688 0 13.953125 0 L 11.875 0 C 12.03125 -0.0507812 12.148438 -0.171875 12.234375 -0.359375 C 12.328125 -0.554688 12.398438 -0.757812 12.453125 -0.96875 C 12.492188 -1.207031 12.519531 -1.46875 12.53125 -1.75 L 12.53125 -2.25 C 11.78125 -1.632812 11.0625 -1.164062 10.375 -0.84375 C 9.6875 -0.519531 9.078125 -0.28125 8.546875 -0.125 C 7.929688 0.0507812 7.347656 0.148438 6.796875 0.171875 C 5.898438 0.171875 5.144531 0.0507812 4.53125 -0.1875 C 3.925781 -0.425781 3.441406 -0.757812 3.078125 -1.1875 C 2.710938 -1.613281 2.453125 -2.125 2.296875 -2.71875 C 2.148438 -3.320312 2.085938 -3.984375 2.109375 -4.703125 C 2.097656 -5.285156 2.097656 -6.023438 2.109375 -6.921875 C 2.117188 -7.691406 2.128906 -8.671875 2.140625 -9.859375 C 2.160156 -11.046875 2.191406 -12.472656 2.234375 -14.140625 L 1.75 -14.140625 C 1.550781 -14.140625 1.351562 -14.132812 1.15625 -14.125 C 0.957031 -14.113281 0.773438 -14.097656 0.609375 -14.078125 C 0.941406 -14.378906 1.238281 -14.609375 1.5 -14.765625 C 1.757812 -14.921875 1.984375 -15.035156 2.171875 -15.109375 C 2.378906 -15.191406 2.566406 -15.242188 2.734375 -15.265625 C 2.867188 -15.265625 3.035156 -15.265625 3.234375 -15.265625 C 3.441406 -15.273438 3.660156 -15.28125 3.890625 -15.28125 C 4.128906 -15.289062 4.367188 -15.300781 4.609375 -15.3125 C 4.847656 -15.320312 5.066406 -15.332031 5.265625 -15.34375 C 5.472656 -15.351562 5.644531 -15.363281 5.78125 -15.375 C 5.925781 -15.382812 6.023438 -15.394531 6.078125 -15.40625 Z M 17.0625 -1.109375 L 17.0625 -1.125 L 17.078125 -1.125 C 17.085938 -1.125 17.09375 -1.125 17.09375 -1.125 Z M 17.0625 -1.109375 "/></g></g></g><g fill="#ffffff" fill-opacity="1"><g transform="translate(254.194083, 228.568294)"><g><path d="M 6.171875 -15.890625 C 5.835938 -15.671875 5.535156 -15.488281 5.265625 -15.34375 C 4.992188 -15.195312 4.738281 -15.070312 4.5 -14.96875 C 4.488281 -14.363281 4.472656 -13.796875 4.453125 -13.265625 C 4.441406 -12.742188 4.429688 -12.25 4.421875 -11.78125 C 4.410156 -11.320312 4.398438 -10.882812 4.390625 -10.46875 C 4.390625 -10.0625 4.382812 -9.664062 4.375 -9.28125 C 4.75 -9.363281 5.140625 -9.40625 5.546875 -9.40625 C 5.941406 -9.40625 6.394531 -9.398438 6.90625 -9.390625 C 7.425781 -9.378906 7.960938 -9.363281 8.515625 -9.34375 C 9.066406 -9.320312 9.625 -9.304688 10.1875 -9.296875 C 10.75 -9.285156 11.273438 -9.28125 11.765625 -9.28125 L 12.265625 -9.28125 L 12.265625 -14.59375 C 12.046875 -14.570312 11.773438 -14.546875 11.453125 -14.515625 C 11.140625 -14.484375 10.785156 -14.441406 10.390625 -14.390625 C 10.773438 -14.703125 11.117188 -14.9375 11.421875 -15.09375 C 11.722656 -15.257812 11.984375 -15.378906 12.203125 -15.453125 C 12.460938 -15.535156 12.691406 -15.585938 12.890625 -15.609375 C 13.148438 -15.609375 13.425781 -15.613281 13.71875 -15.625 C 14.019531 -15.632812 14.3125 -15.648438 14.59375 -15.671875 C 14.882812 -15.703125 15.144531 -15.734375 15.375 -15.765625 C 15.601562 -15.804688 15.773438 -15.847656 15.890625 -15.890625 C 15.554688 -15.671875 15.253906 -15.488281 14.984375 -15.34375 C 14.722656 -15.195312 14.472656 -15.070312 14.234375 -14.96875 C 14.191406 -13.675781 14.160156 -12.519531 14.140625 -11.5 C 14.117188 -10.488281 14.097656 -9.585938 14.078125 -8.796875 C 14.066406 -8.015625 14.054688 -7.332031 14.046875 -6.75 C 14.035156 -6.175781 14.023438 -5.6875 14.015625 -5.28125 C 13.992188 -4.332031 13.988281 -3.6875 14 -3.34375 C 13.988281 -3.082031 13.953125 -2.820312 13.890625 -2.5625 C 13.828125 -2.34375 13.738281 -2.101562 13.625 -1.84375 C 13.507812 -1.59375 13.347656 -1.363281 13.140625 -1.15625 C 13.265625 -1.144531 13.382812 -1.132812 13.5 -1.125 C 13.625 -1.125 13.75 -1.125 13.875 -1.125 C 14.207031 -1.125 14.503906 -1.140625 14.765625 -1.171875 C 15.035156 -1.210938 15.269531 -1.25 15.46875 -1.28125 C 15.664062 -1.3125 15.820312 -1.34375 15.9375 -1.375 C 16.050781 -1.414062 16.125 -1.445312 16.15625 -1.46875 C 15.769531 -1.207031 15.453125 -0.984375 15.203125 -0.796875 C 14.960938 -0.609375 14.738281 -0.457031 14.53125 -0.34375 C 14.332031 -0.226562 14.140625 -0.140625 13.953125 -0.078125 C 13.765625 -0.0234375 13.539062 0 13.28125 0 C 12.945312 0 12.660156 -0.0078125 12.421875 -0.03125 C 12.179688 -0.0625 11.941406 -0.078125 11.703125 -0.078125 C 11.578125 -0.078125 11.453125 -0.0703125 11.328125 -0.0625 C 11.203125 -0.0507812 11.0625 -0.03125 10.90625 0 C 11.132812 -0.101562 11.332031 -0.210938 11.5 -0.328125 C 11.675781 -0.453125 11.816406 -0.617188 11.921875 -0.828125 C 12.035156 -1.035156 12.117188 -1.3125 12.171875 -1.65625 C 12.234375 -2 12.265625 -2.460938 12.265625 -3.046875 L 12.265625 -8.59375 C 12.054688 -8.550781 11.820312 -8.515625 11.5625 -8.484375 C 11.3125 -8.453125 11.019531 -8.4375 10.6875 -8.4375 C 10.21875 -8.4375 9.675781 -8.453125 9.0625 -8.484375 C 8.445312 -8.515625 7.769531 -8.53125 7.03125 -8.53125 C 6.59375 -8.53125 6.148438 -8.519531 5.703125 -8.5 C 5.265625 -8.476562 4.816406 -8.441406 4.359375 -8.390625 C 4.328125 -7.347656 4.304688 -6.5 4.296875 -5.84375 C 4.285156 -5.1875 4.273438 -4.671875 4.265625 -4.296875 C 4.265625 -3.867188 4.265625 -3.550781 4.265625 -3.34375 C 4.253906 -3.082031 4.21875 -2.820312 4.15625 -2.5625 C 4.09375 -2.34375 4.003906 -2.101562 3.890625 -1.84375 C 3.773438 -1.59375 3.613281 -1.363281 3.40625 -1.15625 C 3.539062 -1.144531 3.664062 -1.132812 3.78125 -1.125 C 3.90625 -1.125 4.03125 -1.125 4.15625 -1.125 C 4.488281 -1.125 4.785156 -1.140625 5.046875 -1.171875 C 5.316406 -1.210938 5.550781 -1.25 5.75 -1.28125 C 5.945312 -1.3125 6.097656 -1.34375 6.203125 -1.375 C 6.316406 -1.414062 6.390625 -1.445312 6.421875 -1.46875 C 6.046875 -1.207031 5.734375 -0.984375 5.484375 -0.796875 C 5.234375 -0.609375 5.007812 -0.457031 4.8125 -0.34375 C 4.613281 -0.226562 4.421875 -0.140625 4.234375 -0.078125 C 4.046875 -0.0234375 3.820312 0 3.5625 0 C 3.21875 0 2.925781 -0.0078125 2.6875 -0.03125 C 2.445312 -0.0625 2.207031 -0.078125 1.96875 -0.078125 C 1.84375 -0.078125 1.71875 -0.0703125 1.59375 -0.0625 C 1.46875 -0.0507812 1.332031 -0.03125 1.1875 0 C 1.382812 -0.164062 1.5625 -0.347656 1.71875 -0.546875 C 1.882812 -0.753906 2.023438 -1.003906 2.140625 -1.296875 C 2.265625 -1.585938 2.359375 -1.9375 2.421875 -2.34375 C 2.484375 -2.75 2.515625 -3.242188 2.515625 -3.828125 L 2.515625 -8.0625 C 2.359375 -8.03125 2.195312 -7.992188 2.03125 -7.953125 C 1.875 -7.910156 1.71875 -7.859375 1.5625 -7.796875 C 1.71875 -7.941406 1.875 -8.070312 2.03125 -8.1875 C 2.195312 -8.3125 2.359375 -8.429688 2.515625 -8.546875 L 2.515625 -14.59375 C 2.296875 -14.570312 2.03125 -14.546875 1.71875 -14.515625 C 1.40625 -14.484375 1.050781 -14.441406 0.65625 -14.390625 C 1.039062 -14.703125 1.382812 -14.9375 1.6875 -15.09375 C 2 -15.257812 2.265625 -15.378906 2.484375 -15.453125 C 2.742188 -15.535156 2.972656 -15.585938 3.171875 -15.609375 C 3.421875 -15.609375 3.695312 -15.613281 4 -15.625 C 4.300781 -15.632812 4.59375 -15.648438 4.875 -15.671875 C 5.15625 -15.703125 5.410156 -15.734375 5.640625 -15.765625 C 5.878906 -15.804688 6.054688 -15.847656 6.171875 -15.890625 Z M 6.421875 -1.46875 C 6.429688 -1.476562 6.441406 -1.484375 6.453125 -1.484375 Z M 16.15625 -1.46875 C 16.164062 -1.476562 16.175781 -1.484375 16.1875 -1.484375 Z M 16.15625 -1.46875 "/></g></g></g><g fill="#ffffff" fill-opacity="1"><g transform="translate(272.380043, 228.568294)"><g><path d="M 4.265625 -1.109375 C 3.878906 -0.898438 3.515625 -0.722656 3.171875 -0.578125 C 2.828125 -0.429688 2.503906 -0.316406 2.203125 -0.234375 C 1.910156 -0.148438 1.644531 -0.0859375 1.40625 -0.046875 C 1.164062 -0.015625 0.960938 0 0.796875 0 L -0.8125 0 L 0.359375 -0.65625 C 0.472656 -0.8125 0.585938 -0.96875 0.703125 -1.125 C 0.816406 -1.28125 0.914062 -1.425781 1 -1.5625 C 1.082031 -1.707031 1.164062 -1.851562 1.25 -2 C 1.46875 -2.445312 1.796875 -3.175781 2.234375 -4.1875 C 2.410156 -4.613281 2.617188 -5.117188 2.859375 -5.703125 C 3.109375 -6.296875 3.390625 -6.984375 3.703125 -7.765625 C 4.023438 -8.546875 4.382812 -9.4375 4.78125 -10.4375 C 5.175781 -11.4375 5.613281 -12.554688 6.09375 -13.796875 L 7.953125 -15.5 L 12.140625 -1.3125 C 12.429688 -1.238281 12.710938 -1.1875 12.984375 -1.15625 C 13.265625 -1.132812 13.523438 -1.125 13.765625 -1.125 C 13.898438 -1.125 14.019531 -1.125 14.125 -1.125 C 14.226562 -1.132812 14.320312 -1.144531 14.40625 -1.15625 C 14.488281 -1.15625 14.566406 -1.164062 14.640625 -1.1875 C 14.234375 -0.988281 13.875 -0.816406 13.5625 -0.671875 C 13.257812 -0.523438 12.988281 -0.398438 12.75 -0.296875 C 12.507812 -0.203125 12.285156 -0.128906 12.078125 -0.078125 C 11.878906 -0.0234375 11.675781 0 11.46875 0 L 9.765625 0 L 10.328125 -0.359375 L 8.609375 -6.015625 C 8.398438 -5.953125 8.160156 -5.894531 7.890625 -5.84375 C 7.628906 -5.789062 7.3125 -5.742188 6.9375 -5.703125 C 6.5625 -5.660156 6.125 -5.617188 5.625 -5.578125 C 5.132812 -5.546875 4.566406 -5.515625 3.921875 -5.484375 C 3.617188 -4.847656 3.34375 -4.285156 3.09375 -3.796875 C 2.84375 -3.304688 2.617188 -2.878906 2.421875 -2.515625 C 2.222656 -2.148438 2.046875 -1.84375 1.890625 -1.59375 C 1.742188 -1.351562 1.613281 -1.15625 1.5 -1 C 1.625 -0.976562 1.757812 -0.960938 1.90625 -0.953125 C 2.0625 -0.941406 2.210938 -0.9375 2.359375 -0.9375 C 2.585938 -0.9375 2.8125 -0.945312 3.03125 -0.96875 C 3.257812 -0.988281 3.46875 -1.007812 3.65625 -1.03125 C 3.863281 -1.050781 4.066406 -1.078125 4.265625 -1.109375 Z M 5.75 -6.75 C 6.707031 -6.75 7.582031 -6.773438 8.375 -6.828125 L 6.734375 -12.25 C 6.296875 -11.113281 5.890625 -10.097656 5.515625 -9.203125 C 5.148438 -8.316406 4.804688 -7.5 4.484375 -6.75 Z M 5.75 -6.75 "/></g></g></g><g fill="#ffffff" fill-opacity="1"><g transform="translate(287.993352, 228.568294)"><g><path d="M 3.078125 -1.96875 C 3.066406 -1.90625 3.035156 -1.828125 2.984375 -1.734375 C 2.941406 -1.660156 2.878906 -1.5625 2.796875 -1.4375 C 2.722656 -1.320312 2.617188 -1.1875 2.484375 -1.03125 C 2.691406 -0.976562 2.898438 -0.945312 3.109375 -0.9375 C 3.316406 -0.925781 3.507812 -0.921875 3.6875 -0.921875 C 4.050781 -0.921875 4.34375 -0.929688 4.5625 -0.953125 C 4.789062 -0.984375 4.925781 -1.007812 4.96875 -1.03125 C 4.632812 -0.875 4.351562 -0.726562 4.125 -0.59375 C 3.90625 -0.457031 3.679688 -0.335938 3.453125 -0.234375 C 3.222656 -0.128906 2.957031 -0.046875 2.65625 0.015625 C 2.363281 0.0859375 1.972656 0.132812 1.484375 0.15625 C 1.515625 0.132812 1.5625 0.078125 1.625 -0.015625 L 1.421875 0.15625 C 1.316406 0.164062 1.210938 0.171875 1.109375 0.171875 C 1.003906 0.171875 0.898438 0.171875 0.796875 0.171875 L 1.765625 -0.5625 C 1.796875 -0.738281 1.828125 -0.929688 1.859375 -1.140625 C 1.890625 -1.359375 1.914062 -1.582031 1.9375 -1.8125 C 1.957031 -2.050781 1.976562 -2.289062 2 -2.53125 C 2.019531 -2.769531 2.035156 -3.003906 2.046875 -3.234375 C 2.085938 -3.765625 2.117188 -4.304688 2.140625 -4.859375 C 2.179688 -6.472656 2.207031 -8.0625 2.21875 -9.625 C 2.238281 -11.1875 2.25 -12.753906 2.25 -14.328125 L 3.4375 -16.25 C 3.476562 -15.5625 3.609375 -14.898438 3.828125 -14.265625 C 4.046875 -13.640625 4.332031 -13.023438 4.6875 -12.421875 C 5.050781 -11.828125 5.457031 -11.253906 5.90625 -10.703125 C 6.363281 -10.160156 6.847656 -9.625 7.359375 -9.09375 C 7.878906 -8.5625 8.40625 -8.039062 8.9375 -7.53125 C 9.46875 -7.03125 9.984375 -6.535156 10.484375 -6.046875 C 10.992188 -5.554688 11.472656 -5.066406 11.921875 -4.578125 C 12.378906 -4.085938 12.78125 -3.597656 13.125 -3.109375 C 13.226562 -4.648438 13.296875 -6.15625 13.328125 -7.625 C 13.359375 -9.09375 13.375 -10.554688 13.375 -12.015625 C 13.375 -12.671875 13.351562 -13.1875 13.3125 -13.5625 C 13.28125 -13.9375 13.226562 -14.25 13.15625 -14.5 C 13.070312 -14.476562 12.984375 -14.46875 12.890625 -14.46875 C 12.796875 -14.46875 12.695312 -14.46875 12.59375 -14.46875 C 12.34375 -14.46875 12.101562 -14.460938 11.875 -14.453125 C 11.644531 -14.441406 11.453125 -14.398438 11.296875 -14.328125 C 11.566406 -14.515625 11.828125 -14.6875 12.078125 -14.84375 C 12.328125 -15 12.578125 -15.128906 12.828125 -15.234375 C 13.078125 -15.347656 13.332031 -15.4375 13.59375 -15.5 C 13.851562 -15.570312 14.132812 -15.609375 14.4375 -15.609375 C 14.59375 -15.609375 14.769531 -15.601562 14.96875 -15.59375 C 15.175781 -15.582031 15.398438 -15.554688 15.640625 -15.515625 C 15.453125 -15.398438 15.269531 -15.289062 15.09375 -15.1875 C 14.925781 -15.09375 14.757812 -15.007812 14.59375 -14.9375 C 14.582031 -12.757812 14.519531 -10.617188 14.40625 -8.515625 C 14.300781 -6.410156 14.195312 -4.304688 14.09375 -2.203125 C 13.664062 -1.503906 13.359375 -0.929688 13.171875 -0.484375 C 12.984375 -0.0351562 12.875 0.234375 12.84375 0.328125 L 12.84375 0.375 C 12.519531 -0.363281 12.117188 -1.050781 11.640625 -1.6875 C 11.171875 -2.332031 10.648438 -2.945312 10.078125 -3.53125 C 9.515625 -4.113281 8.925781 -4.679688 8.3125 -5.234375 C 7.695312 -5.796875 7.09375 -6.363281 6.5 -6.9375 C 5.914062 -7.519531 5.359375 -8.125 4.828125 -8.75 C 4.296875 -9.382812 3.832031 -10.066406 3.4375 -10.796875 C 3.425781 -10.179688 3.414062 -9.5625 3.40625 -8.9375 C 3.394531 -8.320312 3.378906 -7.71875 3.359375 -7.125 C 3.347656 -6.539062 3.332031 -5.976562 3.3125 -5.4375 C 3.289062 -4.894531 3.269531 -4.398438 3.25 -3.953125 C 3.226562 -3.503906 3.203125 -3.109375 3.171875 -2.765625 C 3.140625 -2.421875 3.109375 -2.15625 3.078125 -1.96875 Z M 1.484375 0.15625 C 1.472656 0.164062 1.453125 0.171875 1.421875 0.171875 L 1.421875 0.15625 Z M 1.484375 0.15625 "/></g></g></g></svg>